<?xml version="1.0" standalone="no"?>
<!DOCTYPE svg PUBLIC "-//W3C//DTD SVG 20010904//EN"
 "http://www.w3.org/TR/2001/REC-SVG-20010904/DTD/svg10.dtd">
<svg version="1.0" xmlns="http://www.w3.org/2000/svg"
 width="357.000000pt" height="357.000000pt" viewBox="0 0 357.000000 357.000000"
 preserveAspectRatio="xMidYMid meet">
<metadata>
Created by potrace 1.11, written by Peter Selinger 2001-2013
</metadata>
<g transform="translate(0.000000,357.000000) scale(0.100000,-0.100000)"
fill="#000000" stroke="none">
<path d="M170 2462 l0 -938 98 96 c167 163 374 308 647 450 77 40 141 74 142
75 2 1 -29 60 -68 131 -152 276 -209 426 -209 547 0 178 91 363 251 511 l71
66 -466 0 -466 0 0 -938z"/>
<path d="M1972 3358 c32 -60 32 -192 2 -259 -38 -81 -120 -90 -157 -17 -16 32
-16 39 -2 78 24 68 20 114 -14 147 -39 40 -89 54 -211 60 -178 9 -324 -44
-450 -164 -165 -155 -225 -334 -169 -501 38 -113 233 -482 254 -482 6 0 47 15
92 34 205 87 481 171 645 197 67 10 202 9 306 -3 21 -3 39 29 208 381 101 211
204 426 228 478 l45 93 -400 0 -399 0 22 -42z"/>
<path d="M2922 3373 c-10 -28 -517 -1086 -805 -1678 -85 -176 -202 -418 -260
-538 -59 -119 -104 -217 -102 -217 2 0 239 312 527 693 287 380 540 711 562
734 50 55 100 72 144 49 64 -33 70 -96 24 -221 -16 -44 -129 -305 -251 -579
-122 -275 -220 -500 -219 -502 2 -1 195 271 430 604 l428 607 0 538 0 537
-234 0 -234 0 -10 -27z"/>
<path d="M1895 2266 c-131 -28 -260 -69 -451 -143 l-141 -55 44 -108 c70 -172
95 -282 100 -446 6 -154 -7 -248 -53 -378 -26 -74 -110 -232 -180 -336 -118
-176 -304 -344 -482 -434 -130 -66 -343 -116 -494 -116 l-68 0 0 -40 0 -40
502 2 503 3 197 390 c230 455 826 1678 830 1703 5 28 -168 27 -307 -2z"/>
<path d="M2787 1160 c-335 -476 -618 -873 -629 -882 -11 -10 -35 -18 -53 -18
-43 0 -89 51 -82 90 3 14 155 363 337 775 364 824 347 784 333 770 -5 -5 -266
-350 -580 -765 -313 -415 -604 -800 -646 -855 l-77 -100 1002 -3 c551 -1 1003
-1 1005 1 2 2 2 420 1 928 l-3 924 -608 -865z"/>
<path d="M992 1920 c-400 -211 -685 -448 -793 -661 l-29 -58 0 -392 0 -392
108 6 c386 20 678 232 905 657 67 126 88 203 94 348 6 137 -6 234 -43 353 -32
103 -81 209 -97 209 -6 0 -72 -32 -145 -70z"/>
</g>
</svg>
