<?xml version="1.0" encoding="utf-8"?>
<!-- Generator: Adobe Illustrator 20.1.0, SVG Export Plug-In . SVG Version: 6.00 Build 0)  -->
<svg version="1.1" xmlns="http://www.w3.org/2000/svg" xmlns:xlink="http://www.w3.org/1999/xlink" x="0px" y="0px"
	 viewBox="0 0 80.7 120.5" style="enable-background:new 0 0 80.7 120.5;" xml:space="preserve">
<style type="text/css">
	.st0{fill:#EB1B20;}
</style>
<g id="Chop">
	<g>
		<path class="st0" d="M80.7,0H67c-1.4,2.9-27.3,57.2-36.7,75.6c8-10.5,25.9-34.2,36.4-48.2c0.5-0.5,1.3-1.2,2-0.8
			c0.6,0.4,0.5,1.3-0.3,3.4c-0.2,0.5-0.3,0.8-0.4,1c-0.2,0.5-0.2,0.5-2.1,4.9c-2.1,4.6-6.3,14.2-15.4,34.8l30.1-42.8
			c0,0,0,0,0.1-0.1V0z"/>
		<path class="st0" d="M65,35.4c1.9-4.3,1.9-4.3,2.1-4.8c0.1-0.2,0.2-0.4,0.4-1c0.4-1.1,0.6-1.7,0.6-2c-0.2,0.1-0.4,0.3-0.6,0.5
			c0,0-10.1,13.4-20.2,26.7c-5.1,6.7-10.1,13.4-13.9,18.4c-1.9,2.5-3.5,4.6-4.6,6.1c-0.5,0.7-0.9,1.2-1.2,1.5h53.1V29.5L48.5,75.2
			c-0.1,0.2-0.4,0.3-0.7,0.1c-0.2-0.1-0.3-0.4-0.2-0.6C58.1,51,62.8,40.3,65,35.4z"/>
		<path class="st0" d="M42.5,3.5c-0.9-1.5-2.9-2.5-6-2.7C25.4-0.2,19.4,9,18.8,13.9c-0.4,3-0.2,5,7.3,18.1c19.9-8.8,25.5-6.5,27-5.2
			C59.5,13.5,64.8,2.3,65.9,0H38.2c2.6,0.5,4.3,1.5,5.2,3c1.4,2.5,0,5.5-0.1,5.6c-0.1,0.2-0.4,0.3-0.7,0.2c-0.2-0.1-0.3-0.4-0.2-0.7
			C42.4,8.1,43.6,5.6,42.5,3.5z"/>
		<path class="st0" d="M0,51.8c1.9-3.7,7.8-11.5,25.2-19.4c-7.6-13.3-7.8-15.4-7.4-18.6C18.5,8.4,23.7,1.4,32,0H0V51.8z"/>
		<path class="st0" d="M0,74.5C0,74.5,0,74.5,0,74.5c18.8,2,26.6-15.5,26.7-15.6c0,0,0-0.1,0.1-0.1c0.1-0.1,7.5-10.1-1.1-25.4
			C2.6,43.7,0.1,54.1,0.1,54.2c0,0.1-0.1,0.1-0.1,0.2V74.5z"/>
		<path class="st0" d="M0,80.7h26.3c0,0,0,0,0,0c2-2.9,15.5-30.6,26.3-52.9c-0.3-0.4-4.5-4.4-26,5.1c4.6,8.2,4.7,14.9,3.9,19
			c-0.8,4.4-2.6,7-2.9,7.3c-0.5,1.1-7.8,16.3-24.5,16.3c-1,0-2-0.1-3.1-0.2V80.7z"/>
	</g>
</g>
<g id="Layer_2">
	<g>
		<path class="st0" d="M4.9,91.8c0,0.9-0.2,1.6-0.7,2.2S3,94.8,2.2,94.8c-0.9,0-1.6-0.1-2.1-0.4v-0.8c0.3,0.1,0.6,0.3,1,0.3
			c0.4,0.1,0.8,0.1,1.1,0.1c0.6,0,1-0.2,1.4-0.6s0.5-1,0.5-1.6c0-0.6-0.1-1.1-0.4-1.4c-0.3-0.4-0.7-0.7-1.4-1.1
			c-0.6-0.3-1-0.6-1.3-0.8c-0.3-0.3-0.5-0.6-0.6-0.9c-0.1-0.4-0.2-0.8-0.2-1.3c0-0.5,0.1-1,0.3-1.4s0.5-0.7,0.9-1s0.8-0.3,1.3-0.3
			c0.4,0,0.8,0,1.1,0.1c0.3,0.1,0.6,0.2,0.8,0.3l-0.3,0.7c-0.6-0.3-1.1-0.4-1.7-0.4c-0.5,0-1,0.2-1.3,0.5C1.1,85.2,1,85.7,1,86.3
			c0,0.6,0.1,1.1,0.4,1.4c0.2,0.3,0.7,0.7,1.4,1C3.5,89.1,4,89.6,4.4,90C4.7,90.5,4.9,91.1,4.9,91.8z"/>
		<path class="st0" d="M11.9,83.8v7.3c0,2.4-0.9,3.7-2.6,3.7c-0.9,0-1.5-0.3-2-0.9c-0.5-0.6-0.7-1.5-0.7-2.7v-7.3h0.7v7.4
			c0,0.9,0.2,1.7,0.5,2.1c0.3,0.5,0.8,0.7,1.5,0.7c0.6,0,1.1-0.2,1.4-0.7s0.5-1.2,0.5-2.2v-7.4H11.9z"/>
		<path class="st0" d="M18.4,91.8c0,0.9-0.2,1.6-0.7,2.2s-1.1,0.8-1.9,0.8c-0.9,0-1.6-0.1-2.1-0.4v-0.8c0.3,0.1,0.6,0.3,1,0.3
			c0.4,0.1,0.8,0.1,1.1,0.1c0.6,0,1-0.2,1.4-0.6s0.5-1,0.5-1.6c0-0.6-0.1-1.1-0.4-1.4c-0.3-0.4-0.7-0.7-1.4-1.1
			c-0.6-0.3-1-0.6-1.3-0.8c-0.3-0.3-0.5-0.6-0.6-0.9c-0.1-0.4-0.2-0.8-0.2-1.3c0-0.5,0.1-1,0.3-1.4s0.5-0.7,0.9-1s0.8-0.3,1.3-0.3
			c0.4,0,0.8,0,1.1,0.1c0.3,0.1,0.6,0.2,0.8,0.3L18,84.8c-0.6-0.3-1.1-0.4-1.7-0.4c-0.5,0-1,0.2-1.3,0.5c-0.3,0.4-0.5,0.8-0.5,1.4
			c0,0.6,0.1,1.1,0.4,1.4c0.2,0.3,0.7,0.7,1.4,1c0.7,0.4,1.3,0.8,1.6,1.2C18.2,90.5,18.4,91.1,18.4,91.8z"/>
		<path class="st0" d="M24.4,94.6l-1-3.9h-2.6l-0.9,3.9h-0.8l2.6-10.8h0.8l2.7,10.8H24.4z M23.2,89.9l-1-4c-0.1-0.5-0.2-0.9-0.2-1.3
			c0,0.4-0.1,0.9-0.2,1.3l-0.9,4H23.2z"/>
		<path class="st0" d="M32,94.6h-0.9L27,84.9h-0.1c0.1,0.7,0.1,1.3,0.1,1.9v7.8h-0.7V83.8h0.9l4.1,9.6h0c0-0.8-0.1-1.5-0.1-2v-7.6
			H32V94.6z"/>
		<path class="st0" d="M45.6,83.8h0.7L44,94.6h-0.9l-1.7-8.1c0-0.1-0.1-0.7-0.3-1.8l-0.1,0.7L41,86.5l-1.6,8.1h-0.9l-2.3-10.8h0.8
			l1.5,7.5c0.2,1.2,0.4,2.1,0.5,2.5c0.1-0.8,0.2-1.6,0.4-2.5l1.5-7.5h0.8l1.5,7.5c0.2,0.8,0.3,1.5,0.3,2l0.1,0.5
			c0.1-1,0.3-1.9,0.4-2.5L45.6,83.8z"/>
		<path class="st0" d="M51.7,94.6l-1-3.9h-2.6l-0.9,3.9h-0.8l2.6-10.8h0.8l2.7,10.8H51.7z M50.6,89.9l-1-4c-0.1-0.5-0.2-0.9-0.2-1.3
			c0,0.4-0.1,0.9-0.2,1.3l-0.9,4H50.6z"/>
		<path class="st0" d="M53.7,94.6V83.8h0.7v10.1h3.1v0.7H53.7z"/>
		<path class="st0" d="M59,94.6V83.8h0.7v10.1h3.1v0.7H59z"/>
		<path class="st0" d="M68.4,94.6l-1-3.9h-2.6l-0.9,3.9h-0.8l2.6-10.8h0.8l2.7,10.8H68.4z M67.2,89.9l-1-4c-0.1-0.5-0.2-0.9-0.2-1.3
			c0,0.4-0.1,0.9-0.2,1.3l-0.9,4H67.2z"/>
		<path class="st0" d="M73.4,84.3c-0.8,0-1.5,0.4-2,1.3c-0.5,0.9-0.7,2.1-0.7,3.6c0,1,0.1,1.9,0.3,2.6c0.2,0.7,0.5,1.3,1,1.7
			c0.4,0.4,0.9,0.6,1.5,0.6c0.6,0,1.1-0.1,1.5-0.3v0.7c-0.4,0.2-0.9,0.3-1.5,0.3c-0.7,0-1.3-0.2-1.8-0.7c-0.5-0.4-0.9-1.1-1.2-1.9
			c-0.3-0.8-0.4-1.8-0.4-3c0-1.7,0.3-3.1,0.9-4.1c0.6-1,1.5-1.5,2.5-1.5c0.7,0,1.2,0.2,1.7,0.5l-0.3,0.6
			C74.4,84.4,73.9,84.3,73.4,84.3z"/>
		<path class="st0" d="M80.6,94.6h-3.9V83.8h3.9v0.7h-3.2v4.1h3v0.7h-3v4.6h3.2V94.6z"/>
	</g>
	<g>
		<path class="st0" d="M3.1,106.5L3,105.5h0c-0.3,0.7-0.8,1-1.4,1c-0.4,0-0.8-0.2-1-0.5c-0.3-0.3-0.4-0.8-0.4-1.4
			c0-0.6,0.2-1.1,0.6-1.5s0.9-0.6,1.6-0.6l0.7,0V102c0-0.6-0.1-1.1-0.2-1.3s-0.4-0.4-0.8-0.4c-0.4,0-0.8,0.1-1.2,0.4l-0.2-0.5
			c0.5-0.3,0.9-0.4,1.4-0.4c0.5,0,0.9,0.2,1.2,0.5s0.4,0.9,0.4,1.7v4.5H3.1z M1.7,106.1c0.4,0,0.7-0.2,1-0.6c0.2-0.4,0.3-1,0.3-1.7
			v-0.7l-0.7,0c-0.5,0-0.9,0.2-1.2,0.4c-0.3,0.3-0.4,0.7-0.4,1.2c0,0.5,0.1,0.8,0.3,1C1.2,106,1.4,106.1,1.7,106.1z"/>
		<path class="st0" d="M7.1,99.8c0.2,0,0.4,0,0.6,0.1l-0.1,0.6c-0.1-0.1-0.3-0.1-0.5-0.1c-0.2,0-0.4,0.1-0.6,0.3
			c-0.2,0.2-0.3,0.5-0.5,1c-0.1,0.4-0.2,0.9-0.2,1.4v3.5H5.3v-6.6h0.5l0.1,1.2h0C6.2,100.2,6.6,99.8,7.1,99.8z"/>
		<path class="st0" d="M9.9,106.1c0.2,0,0.3,0,0.5-0.1v0.5c-0.2,0.1-0.4,0.1-0.7,0.1c-0.7,0-1-0.5-1-1.5v-4.7H8.1v-0.3l0.6-0.2
			l0.2-1.6h0.4v1.6h1v0.5h-1v4.5c0,0.4,0,0.7,0.1,0.9C9.5,106,9.7,106.1,9.9,106.1z"/>
		<path class="st0" d="M11.4,98.1c0-0.2,0-0.3,0.1-0.4c0.1-0.1,0.2-0.2,0.3-0.2c0.1,0,0.2,0,0.3,0.2c0.1,0.1,0.1,0.2,0.1,0.4
			c0,0.2,0,0.3-0.1,0.4c-0.1,0.1-0.2,0.2-0.3,0.2c-0.1,0-0.2-0.1-0.3-0.2C11.4,98.4,11.4,98.2,11.4,98.1z M12,106.5h-0.6v-6.6H12
			V106.5z"/>
		<path class="st0" d="M16.4,104.8c0,0.6-0.1,1-0.4,1.3c-0.3,0.3-0.7,0.5-1.3,0.5c-0.3,0-0.6,0-0.8-0.1c-0.2-0.1-0.4-0.2-0.5-0.3
			v-0.7c0.2,0.1,0.3,0.3,0.6,0.4c0.2,0.1,0.5,0.1,0.8,0.1c0.3,0,0.6-0.1,0.8-0.3c0.2-0.2,0.3-0.5,0.3-0.9c0-0.3-0.1-0.5-0.2-0.7
			c-0.1-0.2-0.4-0.4-0.8-0.7c-0.5-0.3-0.8-0.5-0.9-0.7c-0.2-0.2-0.3-0.4-0.4-0.6s-0.1-0.5-0.1-0.8c0-0.5,0.2-0.9,0.5-1.2
			c0.3-0.3,0.7-0.5,1.2-0.5c0.5,0,1,0.1,1.3,0.4l-0.3,0.5c-0.3-0.2-0.7-0.3-1.1-0.3c-0.3,0-0.6,0.1-0.8,0.3
			c-0.2,0.2-0.3,0.5-0.3,0.8c0,0.3,0.1,0.5,0.2,0.7c0.1,0.2,0.4,0.4,0.9,0.7c0.4,0.3,0.7,0.5,0.9,0.7c0.2,0.2,0.3,0.4,0.4,0.6
			C16.3,104.3,16.4,104.5,16.4,104.8z"/>
		<path class="st0" d="M18.9,106.1c0.2,0,0.3,0,0.5-0.1v0.5c-0.2,0.1-0.4,0.1-0.7,0.1c-0.7,0-1-0.5-1-1.5v-4.7h-0.6v-0.3l0.6-0.2
			l0.2-1.6h0.4v1.6h1v0.5h-1v4.5c0,0.4,0,0.7,0.1,0.9C18.5,106,18.7,106.1,18.9,106.1z"/>
		<path class="st0" d="M24.2,102.3h-1.9v-0.5h1.9v-2.6h0.5v2.6h1.9v0.5h-1.9v2.6h-0.5V102.3z"/>
		<path class="st0" d="M35.7,106.5V102c0-1.1-0.3-1.7-1-1.7c-0.4,0-0.8,0.2-1,0.6c-0.2,0.4-0.3,1-0.3,1.7v3.9h-0.6V102
			c0-0.6-0.1-1-0.2-1.2c-0.2-0.3-0.4-0.4-0.7-0.4c-0.4,0-0.8,0.2-1,0.6c-0.2,0.4-0.3,1-0.3,1.9v3.6h-0.6v-6.6h0.5l0,0.9h0.1
			c0.3-0.7,0.7-1,1.3-1c0.4,0,0.7,0.1,0.9,0.3s0.4,0.5,0.5,0.8c0.2-0.4,0.4-0.7,0.6-0.9c0.2-0.2,0.5-0.3,0.9-0.3
			c0.5,0,0.9,0.2,1.1,0.6c0.2,0.4,0.3,1,0.3,1.8v4.3H35.7z"/>
		<path class="st0" d="M39.9,106.6c-0.7,0-1.2-0.3-1.6-0.9c-0.4-0.6-0.6-1.4-0.6-2.5c0-1.1,0.2-2,0.5-2.6c0.3-0.6,0.8-0.9,1.4-0.9
			c0.5,0,1,0.3,1.3,0.8s0.5,1.2,0.5,2.1v0.5h-3.1c0,1,0.1,1.7,0.4,2.2c0.3,0.5,0.7,0.7,1.2,0.7c0.4,0,0.9-0.1,1.3-0.4v0.6
			C40.8,106.5,40.4,106.6,39.9,106.6z M39.7,100.3c-0.8,0-1.2,0.8-1.3,2.4h2.5c0-0.7-0.1-1.3-0.3-1.7S40,100.3,39.7,100.3z"/>
		<path class="st0" d="M44.2,106.1c0.2,0,0.3,0,0.5-0.1v0.5c-0.2,0.1-0.4,0.1-0.7,0.1c-0.7,0-1-0.5-1-1.5v-4.7h-0.6v-0.3l0.6-0.2
			l0.2-1.6h0.4v1.6h1v0.5h-1v4.5c0,0.4,0,0.7,0.1,0.9C43.7,106,43.9,106.1,44.2,106.1z"/>
		<path class="st0" d="M48.2,106.5l-0.1-0.9h0c-0.3,0.7-0.8,1-1.4,1c-0.4,0-0.8-0.2-1-0.5c-0.3-0.3-0.4-0.8-0.4-1.4
			c0-0.6,0.2-1.1,0.6-1.5c0.4-0.4,0.9-0.6,1.6-0.6l0.7,0V102c0-0.6-0.1-1.1-0.2-1.3s-0.4-0.4-0.8-0.4c-0.4,0-0.8,0.1-1.2,0.4
			l-0.2-0.5c0.5-0.3,0.9-0.4,1.4-0.4c0.5,0,0.9,0.2,1.2,0.5s0.4,0.9,0.4,1.7v4.5H48.2z M46.8,106.1c0.4,0,0.7-0.2,1-0.6
			s0.3-1,0.3-1.7v-0.7l-0.7,0c-0.5,0-0.9,0.2-1.2,0.4s-0.4,0.7-0.4,1.2c0,0.5,0.1,0.8,0.3,1C46.3,106,46.5,106.1,46.8,106.1z"/>
		<path class="st0" d="M51,106.5h-0.6V97H51V106.5z"/>
		<path class="st0" d="M57.7,106.5l-0.1-0.9h0c-0.3,0.7-0.8,1-1.4,1c-0.4,0-0.8-0.2-1-0.5c-0.3-0.3-0.4-0.8-0.4-1.4
			c0-0.6,0.2-1.1,0.6-1.5c0.4-0.4,0.9-0.6,1.6-0.6l0.7,0V102c0-0.6-0.1-1.1-0.2-1.3s-0.4-0.4-0.8-0.4c-0.4,0-0.8,0.1-1.2,0.4
			l-0.2-0.5c0.5-0.3,0.9-0.4,1.4-0.4c0.5,0,0.9,0.2,1.2,0.5s0.4,0.9,0.4,1.7v4.5H57.7z M56.3,106.1c0.4,0,0.7-0.2,1-0.6
			s0.3-1,0.3-1.7v-0.7l-0.7,0c-0.5,0-0.9,0.2-1.2,0.4s-0.4,0.7-0.4,1.2c0,0.5,0.1,0.8,0.3,1C55.8,106,56,106.1,56.3,106.1z"/>
		<path class="st0" d="M61.7,99.8c0.2,0,0.4,0,0.6,0.1l-0.1,0.6c-0.1-0.1-0.3-0.1-0.5-0.1c-0.2,0-0.4,0.1-0.6,0.3
			c-0.2,0.2-0.3,0.5-0.5,1s-0.2,0.9-0.2,1.4v3.5h-0.6v-6.6h0.5l0.1,1.2h0C60.8,100.2,61.2,99.8,61.7,99.8z"/>
		<path class="st0" d="M64.5,106.1c0.2,0,0.3,0,0.5-0.1v0.5c-0.2,0.1-0.4,0.1-0.7,0.1c-0.7,0-1-0.5-1-1.5v-4.7h-0.6v-0.3l0.6-0.2
			l0.2-1.6h0.4v1.6h1v0.5h-1v4.5c0,0.4,0,0.7,0.1,0.9C64.1,106,64.3,106.1,64.5,106.1z"/>
		<path class="st0" d="M66,98.1c0-0.2,0-0.3,0.1-0.4c0.1-0.1,0.2-0.2,0.3-0.2c0.1,0,0.2,0,0.3,0.2c0.1,0.1,0.1,0.2,0.1,0.4
			c0,0.2,0,0.3-0.1,0.4c-0.1,0.1-0.2,0.2-0.3,0.2c-0.1,0-0.2-0.1-0.3-0.2C66,98.4,66,98.2,66,98.1z M66.6,106.5H66v-6.6h0.6V106.5z"
			/>
		<path class="st0" d="M71,104.8c0,0.6-0.1,1-0.4,1.3s-0.7,0.5-1.3,0.5c-0.3,0-0.6,0-0.8-0.1c-0.2-0.1-0.4-0.2-0.5-0.3v-0.7
			c0.2,0.1,0.3,0.3,0.6,0.4c0.2,0.1,0.5,0.1,0.8,0.1c0.3,0,0.6-0.1,0.8-0.3c0.2-0.2,0.3-0.5,0.3-0.9c0-0.3-0.1-0.5-0.2-0.7
			s-0.4-0.4-0.8-0.7c-0.5-0.3-0.8-0.5-0.9-0.7s-0.3-0.4-0.4-0.6c-0.1-0.2-0.1-0.5-0.1-0.8c0-0.5,0.2-0.9,0.5-1.2
			c0.3-0.3,0.7-0.5,1.2-0.5c0.5,0,1,0.1,1.3,0.4l-0.3,0.5c-0.3-0.2-0.7-0.3-1.1-0.3c-0.3,0-0.6,0.1-0.8,0.3
			c-0.2,0.2-0.3,0.5-0.3,0.8c0,0.3,0.1,0.5,0.2,0.7c0.1,0.2,0.4,0.4,0.9,0.7c0.4,0.3,0.7,0.5,0.9,0.7c0.2,0.2,0.3,0.4,0.4,0.6
			C70.9,104.3,71,104.5,71,104.8z"/>
		<path class="st0" d="M74.9,106.5l-0.1-0.9h0c-0.3,0.7-0.8,1-1.4,1c-0.4,0-0.8-0.2-1-0.5c-0.3-0.3-0.4-0.8-0.4-1.4
			c0-0.6,0.2-1.1,0.6-1.5c0.4-0.4,0.9-0.6,1.6-0.6l0.7,0V102c0-0.6-0.1-1.1-0.2-1.3s-0.4-0.4-0.8-0.4c-0.4,0-0.8,0.1-1.2,0.4
			l-0.2-0.5c0.5-0.3,0.9-0.4,1.4-0.4c0.5,0,0.9,0.2,1.2,0.5s0.4,0.9,0.4,1.7v4.5H74.9z M73.5,106.1c0.4,0,0.7-0.2,1-0.6
			s0.3-1,0.3-1.7v-0.7l-0.7,0c-0.5,0-0.9,0.2-1.2,0.4s-0.4,0.7-0.4,1.2c0,0.5,0.1,0.8,0.3,1C72.9,106,73.2,106.1,73.5,106.1z"/>
		<path class="st0" d="M80.1,106.5v-4.5c0-1.1-0.3-1.6-1-1.6c-0.5,0-0.9,0.2-1.1,0.6c-0.2,0.4-0.3,1.1-0.3,1.9v3.6h-0.6v-6.6h0.5
			l0,0.9h0.1c0.1-0.3,0.3-0.6,0.6-0.8c0.3-0.2,0.5-0.3,0.8-0.3c0.5,0,0.9,0.2,1.2,0.5s0.4,0.9,0.4,1.6v4.5H80.1z"/>
	</g>
</g>
</svg>
