<?xml version="1.0" encoding="utf-8"?>
<!-- Generator: Adobe Illustrator 20.1.0, SVG Export Plug-In . SVG Version: 6.00 Build 0)  -->
<svg version="1.1" id="Chop" xmlns="http://www.w3.org/2000/svg" xmlns:xlink="http://www.w3.org/1999/xlink" x="0px" y="0px"
	 viewBox="0 0 80.7 80.7" style="enable-background:new 0 0 80.7 80.7;" xml:space="preserve">
<style type="text/css">
	.st0{fill:#EB1B20;}
</style>
<g>
	<path class="st0" d="M80.7,0H67c-1.4,2.9-27.3,57.2-36.7,75.6c8-10.5,25.9-34.2,36.4-48.2c0.5-0.5,1.3-1.2,2-0.8
		c0.6,0.4,0.5,1.3-0.3,3.4c-0.2,0.5-0.3,0.8-0.4,1c-0.2,0.5-0.2,0.5-2.1,4.9c-2.1,4.6-6.3,14.2-15.4,34.8l30.1-42.8c0,0,0,0,0.1-0.1
		V0z"/>
	<path class="st0" d="M65,35.4c1.9-4.3,1.9-4.3,2.1-4.8c0.1-0.2,0.2-0.4,0.4-1c0.4-1.1,0.6-1.7,0.6-2c-0.2,0.1-0.4,0.3-0.6,0.5
		c0,0-10.1,13.4-20.2,26.7c-5.1,6.7-10.1,13.4-13.9,18.4c-1.9,2.5-3.5,4.6-4.6,6.1c-0.5,0.7-0.9,1.2-1.2,1.5h53.1V29.5L48.5,75.2
		c-0.1,0.2-0.4,0.3-0.7,0.1c-0.2-0.1-0.3-0.4-0.2-0.6C58.1,51,62.8,40.3,65,35.4z"/>
	<path class="st0" d="M42.5,3.5c-0.9-1.5-2.9-2.5-6-2.7C25.4-0.2,19.4,9,18.8,13.9c-0.4,3-0.2,5,7.3,18.1c19.9-8.8,25.5-6.5,27-5.2
		C59.5,13.5,64.8,2.3,65.9,0H38.2c2.6,0.5,4.3,1.5,5.2,3c1.4,2.5,0,5.5-0.1,5.6c-0.1,0.2-0.4,0.3-0.7,0.2c-0.2-0.1-0.3-0.4-0.2-0.7
		C42.4,8.1,43.6,5.6,42.5,3.5z"/>
	<path class="st0" d="M0,51.8c1.9-3.7,7.8-11.5,25.2-19.4c-7.6-13.3-7.8-15.4-7.4-18.6C18.5,8.4,23.7,1.4,32,0H0V51.8z"/>
	<path class="st0" d="M0,74.5C0,74.5,0,74.5,0,74.5c18.8,2,26.6-15.5,26.7-15.6c0,0,0-0.1,0.1-0.1c0.1-0.1,7.5-10.1-1.1-25.4
		C2.6,43.7,0.1,54.1,0.1,54.2c0,0.1-0.1,0.1-0.1,0.2V74.5z"/>
	<path class="st0" d="M0,80.7h26.3c0,0,0,0,0,0c2-2.9,15.5-30.6,26.3-52.9c-0.3-0.4-4.5-4.4-26,5.1c4.6,8.2,4.7,14.9,3.9,19
		c-0.8,4.4-2.6,7-2.9,7.3c-0.5,1.1-7.8,16.3-24.5,16.3c-1,0-2-0.1-3.1-0.2V80.7z"/>
</g>
</svg>
